<svg width="34" height="34" viewBox="0 0 34 34" fill="none" xmlns="http://www.w3.org/2000/svg">
<path d="M28.2463 4.03047H24.9463V2.38047C24.9463 1.94286 24.7725 1.52318 24.463 1.21374C24.1536 0.904307 23.7339 0.730469 23.2963 0.730469C22.8587 0.730469 22.439 0.904307 22.1296 1.21374C21.8201 1.52318 21.6463 1.94286 21.6463 2.38047V4.03047H11.7463V2.38047C11.7463 1.94286 11.5724 1.52318 11.263 1.21374C10.9536 0.904307 10.5339 0.730469 10.0963 0.730469C9.65868 0.730469 9.239 0.904307 8.92956 1.21374C8.62013 1.52318 8.44629 1.94286 8.44629 2.38047V4.03047H5.14629C3.83347 4.03047 2.57442 4.55199 1.64611 5.48029C0.717806 6.4086 0.196289 7.66765 0.196289 8.98047V28.7805C0.196289 30.0933 0.717806 31.3523 1.64611 32.2806C2.57442 33.209 3.83347 33.7305 5.14629 33.7305H28.2463C29.5591 33.7305 30.8182 33.209 31.7465 32.2806C32.6748 31.3523 33.1963 30.0933 33.1963 28.7805V8.98047C33.1963 7.66765 32.6748 6.4086 31.7465 5.48029C30.8182 4.55199 29.5591 4.03047 28.2463 4.03047ZM29.8963 28.7805C29.8963 29.2181 29.7225 29.6378 29.413 29.9472C29.1036 30.2566 28.6839 30.4305 28.2463 30.4305H5.14629C4.70868 30.4305 4.289 30.2566 3.97956 29.9472C3.67013 29.6378 3.49629 29.2181 3.49629 28.7805V17.2305H29.8963V28.7805ZM29.8963 13.9305H3.49629V8.98047C3.49629 8.54286 3.67013 8.12318 3.97956 7.81374C4.289 7.50431 4.70868 7.33047 5.14629 7.33047H8.44629V8.98047C8.44629 9.41808 8.62013 9.83776 8.92956 10.1472C9.239 10.4566 9.65868 10.6305 10.0963 10.6305C10.5339 10.6305 10.9536 10.4566 11.263 10.1472C11.5724 9.83776 11.7463 9.41808 11.7463 8.98047V7.33047H21.6463V8.98047C21.6463 9.41808 21.8201 9.83776 22.1296 10.1472C22.439 10.4566 22.8587 10.6305 23.2963 10.6305C23.7339 10.6305 24.1536 10.4566 24.463 10.1472C24.7725 9.83776 24.9463 9.41808 24.9463 8.98047V7.33047H28.2463C28.6839 7.33047 29.1036 7.50431 29.413 7.81374C29.7225 8.12318 29.8963 8.54286 29.8963 8.98047V13.9305Z" fill="black"/>
</svg>
