<svg width="34" height="34" viewBox="0 0 34 34" fill="none" xmlns="http://www.w3.org/2000/svg">
<path d="M6.8916 0H8.9541V6.1875H6.8916V0Z" fill="black"/>
<path d="M23.3916 0H25.4541V6.1875H23.3916V0Z" fill="black"/>
<path d="M14.3166 28.875H2.7666V12.375H29.5791V13.6125C30.4041 14.025 31.0229 14.4375 31.6416 15.0563V2.0625H27.5166V8.25H21.3291V2.0625H11.0166V8.25H4.8291V2.0625H0.704102V30.9375H15.7604C15.1416 30.3188 14.7291 29.7 14.3166 28.875Z" fill="black"/>
<path d="M29.5791 24.748H23.3916V18.5605H25.4541V22.6855H29.5791V24.748Z" fill="black"/>
<path d="M24.4229 16.502C28.3416 16.502 31.6416 19.802 31.6416 23.7207C31.6416 27.6395 28.3416 30.9395 24.4229 30.9395C20.5041 30.9395 17.2041 27.6395 17.2041 23.7207C17.2041 19.802 20.5041 16.502 24.4229 16.502ZM24.4229 14.4395C19.2666 14.4395 15.1416 18.5645 15.1416 23.7207C15.1416 28.877 19.2666 33.002 24.4229 33.002C29.5791 33.002 33.7041 28.877 33.7041 23.7207C33.7041 18.5645 29.5791 14.4395 24.4229 14.4395Z" fill="black"/>
</svg>
