<svg width="15" height="15" viewBox="0 0 15 15" fill="none" xmlns="http://www.w3.org/2000/svg">
<mask id="mask0" mask-type="alpha" maskUnits="userSpaceOnUse" x="0" y="0" width="15" height="15">
<circle cx="7.5" cy="7.5" r="7.5" fill="#C4C4C4"/>
</mask>
<g mask="url(#mask0)">
<path d="M18.2751 -0.55752C11.0932 -2.22804 3.91132 1.49123 -3.27506 -0.183792C-3.6758 -0.273847 -4 -0.0442073 -4 0.356537V14.5132C-4 14.9139 -3.6758 15.3327 -3.27506 15.4272C3.90681 17.0977 11.0887 13.3785 18.2751 15.0535C18.6758 15.148 19 14.9184 19 14.5177V0.361039C19 -0.0442075 18.6758 -0.462962 18.2751 -0.55752Z" fill="#0B67B2"/>
<path d="M19 0.356048C19 -0.0446956 18.6758 -0.463451 18.2751 -0.558008C18.23 -0.567014 18.1805 -0.580522 18.1355 -0.589527L10.1341 4.28244V-0.724609C8.37803 -0.512981 6.62197 -0.224805 4.8659 -0.0131766V4.2284L-1.97377 0.0633702C-2.40603 0.000331819 -2.83829 -0.0807175 -3.27506 -0.184281C-3.6758 -0.274335 -4 -0.0446956 -4 0.356048V1.29262L1.76351 4.80025H-4V10.0685H2.02917L-4 13.7382V14.5127C-4 14.9134 -3.6758 15.3322 -3.27506 15.4267C-3.13998 15.4582 -3.00489 15.4853 -2.87431 15.5123L4.86139 10.7979V15.5888C6.61746 15.3772 8.37353 15.089 10.1296 14.8774V10.7394L16.7441 14.7738C17.2529 14.8414 17.7617 14.9314 18.2706 15.053C18.6713 15.1476 18.9955 14.9179 18.9955 14.5172V13.6887L13.0564 10.073H18.9955V4.80476H13.322L18.9955 1.35115C19 1.01345 19 0.684748 19 0.356048Z" fill="#FF473E"/>
<path d="M14.5918 10.4744L19 13.158V14.2117L12.8628 10.4744H10.5529L17.9509 14.9817C17.2034 14.8241 16.4514 14.725 15.704 14.6665L10.5393 11.5235V14.8376C10.2692 14.8691 9.99902 14.9006 9.72886 14.9366V9.66842H19V10.4789H14.5918V10.4744ZM4.46065 15.6436C4.73081 15.612 5.00098 15.5805 5.27114 15.5445V9.66392H-4V10.4744H0.498238L-4 13.2121V14.2657L2.22729 10.4744H4.46065V10.5194L-3.47318 15.3509C-3.41014 15.3824 -3.3426 15.4094 -3.27506 15.4274C-2.91934 15.5085 -2.56363 15.5805 -2.20791 15.6391L4.46065 11.5776V15.6436ZM-4 4.39571V5.2062H5.27114V-0.0620043C5.00098 -0.0259824 4.73081 0.00553668 4.46065 0.0370559V3.45914L-0.906617 0.190149C-1.68109 0.122608 -2.45556 0.0100395 -3.23003 -0.17007L4.26703 4.39571H1.95713L-4 0.7665V1.82014L0.232576 4.39571H-4ZM10.5393 -0.773438C10.2692 -0.741918 9.99902 -0.710399 9.72886 -0.674377V5.2062H19V4.39571H14.8575L19 1.87417V0.820533L13.1284 4.39571H10.8185L18.6398 -0.368191C18.5317 -0.458246 18.4101 -0.525787 18.2751 -0.557306C18.0094 -0.620344 17.7482 -0.669874 17.4826 -0.719404L10.5393 3.50867V-0.773438Z" fill="#E8E8E8"/>
</g>
</svg>
