<svg width="67" height="51" viewBox="0 0 67 51" fill="none" xmlns="http://www.w3.org/2000/svg">
<path d="M4.41226 5.86741L3.59246 2.02703C8.32051 1.48435 12.0094 1.29464 15.6201 2.6049C18.1089 3.50803 24.2504 7.16525 26.146 14.7837L24.7991 17.5267C22.3547 11.8213 17.5507 7.74051 13.8242 6.49994C11.5102 5.72956 8.20256 5.68689 4.41226 5.86741Z" fill="black"/>
<path d="M1.54377 19.4481L0.986328 16.8518C3.83506 15.3604 7.49864 14.1686 11.4505 14.3254C15.4025 14.4821 18.352 17.2887 20.2199 18.8983L19.4121 20.463C18.3158 19.7362 17.5259 19.293 16.9134 18.8983C16.4029 21.181 15.2173 25.4054 12.0263 25.1623C7.30997 24.8031 7.30997 20.5041 7.30997 17.5267C5.53272 17.5267 2.65424 18.7123 1.54377 19.4481Z" fill="black"/>
<path d="M46.8971 20.401L46.5843 18.0173C48.4607 17.0739 50.3113 15.2703 54.0841 15.5618C59.1202 15.951 62.4885 18.8823 64.0878 20.4908C63.8043 20.7901 63.0874 21.5161 62.4885 22.025C60.3888 20.7217 59.6147 19.5978 58.4578 19.4481C58.3897 21.0946 57.4697 26.3073 53.1299 25.4651C49.659 24.7915 49.5397 20.0958 49.7098 18.8983C48.9864 19.0245 47.304 20.1247 46.8971 20.401Z" fill="black"/>
<path d="M38.9238 51L36.4345 50.4935C36.649 47.7194 35.9419 46.1535 34.769 44.0783C34.0908 42.8784 33.3136 41.6132 31.3059 40.7317C31.0677 38.449 30.8635 34.0334 31.8163 25.8756C32.7691 17.7179 35.9614 7.76707 39.0239 4.66113C42.0864 1.5552 44.4076 0 52.0477 0C57.6524 0 63.8578 3.11037 66.9463 5.63795C66.6004 6.33517 66.2223 7.23085 65.9601 7.85196L65.9494 7.8772C62.4629 6.00298 57.4208 4.1767 52.725 4.1767L52.638 4.17669C48.7145 4.17647 44.4398 4.17622 41.2588 8.30529C38.0542 12.4649 36.8017 16.2649 35.4624 22.8737C34.5388 27.4315 34.2683 32.0845 34.2683 38.1987C37.6473 42.7609 38.352 44.6755 38.8286 46.7679C39.076 47.8539 39.0712 50.5634 38.9238 51Z" fill="black"/>
</svg>
