<svg width="33" height="23" viewBox="0 0 33 23" fill="none" xmlns="http://www.w3.org/2000/svg">
<path d="M2.13983 2.82058L1.74568 1.14158C4.01886 0.904322 5.79246 0.821378 7.52844 1.39422C8.725 1.78907 11.6778 3.38799 12.5892 6.71878L11.9416 7.918C10.7663 5.42361 8.45662 3.6395 6.665 3.09712C5.55243 2.76031 3.96216 2.74166 2.13983 2.82058Z" fill="black"/>
<path d="M0.760686 8.75803L0.492676 7.62293C1.86232 6.97087 3.62372 6.44984 5.52375 6.51838C7.42379 6.58691 8.84189 7.81395 9.73993 8.51764L9.35155 9.20173C8.82451 8.88396 8.44473 8.69019 8.15021 8.51764C7.90481 9.51561 7.33478 11.3625 5.80059 11.2563C3.53301 11.0992 3.53301 9.21971 3.53301 7.918C2.67853 7.918 1.29459 8.43632 0.760686 8.75803Z" fill="black"/>
<path d="M22.5661 9.17464L22.4157 8.13247C23.3178 7.72004 24.2075 6.93148 26.0215 7.05895C28.4428 7.22909 30.0622 8.51066 30.8312 9.21387C30.6948 9.34476 30.3502 9.66214 30.0622 9.88464C29.0527 9.31483 28.6805 8.82347 28.1243 8.75803C28.0916 9.47788 27.6493 11.7568 25.5627 11.3886C23.894 11.0941 23.8366 9.04117 23.9184 8.51764C23.5706 8.57284 22.7617 9.0538 22.5661 9.17464Z" fill="black"/>
<path d="M18.7326 22.5524L17.5358 22.331C17.6389 21.1181 17.2989 20.4335 16.735 19.5263C16.4089 19.0017 16.0352 18.4485 15.07 18.0631C14.9554 17.0652 14.8573 15.1347 15.3154 11.5681C15.7735 8.00158 17.3083 3.65111 18.7807 2.2932C20.2531 0.935296 21.3691 0.255368 25.0424 0.255368C27.7371 0.255368 30.7206 1.61521 32.2055 2.72026C32.0392 3.02507 31.8574 3.41665 31.7313 3.6882L31.7262 3.69925C30.0499 2.87985 27.6257 2.08141 25.368 2.08141L25.3262 2.08141C23.4398 2.08131 21.3846 2.0812 19.8552 3.88642C18.3145 5.70498 17.7123 7.36633 17.0684 10.2557C16.6243 12.2483 16.4943 14.2826 16.4943 16.9557C18.1189 18.9503 18.4576 19.7874 18.6868 20.7022C18.8057 21.1769 18.8035 22.3615 18.7326 22.5524Z" fill="black"/>
<path d="M2.13983 2.82058L1.74568 1.14158C4.01886 0.904322 5.79246 0.821378 7.52844 1.39422C8.725 1.78907 11.6778 3.38799 12.5892 6.71878L11.9416 7.918C10.7663 5.42361 8.45662 3.6395 6.665 3.09712C5.55243 2.76031 3.96216 2.74166 2.13983 2.82058Z" stroke="black"/>
<path d="M0.760686 8.75803L0.492676 7.62293C1.86232 6.97087 3.62372 6.44984 5.52375 6.51838C7.42379 6.58691 8.84189 7.81395 9.73993 8.51764L9.35155 9.20173C8.82451 8.88396 8.44473 8.69019 8.15021 8.51764C7.90481 9.51561 7.33478 11.3625 5.80059 11.2563C3.53301 11.0992 3.53301 9.21971 3.53301 7.918C2.67853 7.918 1.29459 8.43632 0.760686 8.75803Z" stroke="black"/>
<path d="M22.5661 9.17464L22.4157 8.13247C23.3178 7.72004 24.2075 6.93148 26.0215 7.05895C28.4428 7.22909 30.0622 8.51066 30.8312 9.21387C30.6948 9.34476 30.3502 9.66214 30.0622 9.88464C29.0527 9.31483 28.6805 8.82347 28.1243 8.75803C28.0916 9.47788 27.6493 11.7568 25.5627 11.3886C23.894 11.0941 23.8366 9.04117 23.9184 8.51764C23.5706 8.57284 22.7617 9.0538 22.5661 9.17464Z" stroke="black"/>
<path d="M18.7326 22.5524L17.5358 22.331C17.6389 21.1181 17.2989 20.4335 16.735 19.5263C16.4089 19.0017 16.0352 18.4485 15.07 18.0631C14.9554 17.0652 14.8573 15.1347 15.3154 11.5681C15.7735 8.00158 17.3083 3.65111 18.7807 2.2932C20.2531 0.935296 21.3691 0.255368 25.0424 0.255368C27.7371 0.255368 30.7206 1.61521 32.2055 2.72026C32.0392 3.02507 31.8574 3.41665 31.7313 3.6882L31.7262 3.69925C30.0499 2.87985 27.6257 2.08141 25.368 2.08141L25.3262 2.08141C23.4398 2.08131 21.3846 2.0812 19.8552 3.88642C18.3145 5.70498 17.7123 7.36633 17.0684 10.2557C16.6243 12.2483 16.4943 14.2826 16.4943 16.9557C18.1189 18.9503 18.4576 19.7874 18.6868 20.7022C18.8057 21.1769 18.8035 22.3615 18.7326 22.5524Z" stroke="black"/>
</svg>
