<svg width="282" height="20" viewBox="0 0 282 20" fill="none" xmlns="http://www.w3.org/2000/svg">
<path d="M17.2403 17.8779V9.60118H10.5182V12.4121H13.7135V16.0664C12.779 16.5661 11.6034 16.8472 10.2168 16.8472C6.59951 16.8472 4.03727 14.1924 4.03727 9.97597C4.03727 5.66584 6.6598 3.10475 10.4278 3.10475C13.1106 3.10475 14.9795 4.1042 16.4867 5.41598V1.94913C14.9795 0.762283 12.4474 0.0439275 10.0661 0.0439275C4.79087 0.0439275 0.208984 3.76064 0.208984 9.81981C0.208984 15.879 4.61001 19.7206 9.82492 19.7206C13.3819 19.7206 16.2154 18.3151 17.2403 17.8779Z" fill="black"/>
<path d="M40.4343 19.1897L32.7475 0.449955H29.8839L22.1971 19.1897H25.7541L27.5929 14.5672H34.9179L36.7567 19.1897H40.4343ZM33.9232 11.9124H28.5877L31.2705 5.10365L33.9232 11.9124Z" fill="black"/>
<path d="M57.9449 3.41708V0.449955H42.0288V3.41708H48.1481V19.1897H51.8256V3.41708H57.9449Z" fill="black"/>
<path d="M79.4625 19.1897V0.449955H75.7849V7.69597H67.2542V0.449955H63.5766V19.1897H67.2542V10.913H75.7849V19.1897H79.4625Z" fill="black"/>
<path d="M98.549 19.1897V16.2225H90.4403V10.788H97.0418V7.8209H90.4403V3.41708H98.549V0.449955H86.7627V19.1897H98.549Z" fill="black"/>
<path d="M120.611 19.1897V0.449955H117.325V12.8182L107.86 0.449955H105.298V19.1897H108.583V6.82145L118.049 19.1897H120.611Z" fill="black"/>
<path d="M143.81 19.1897V0.449955H140.133V7.69597H131.602V0.449955H127.925V19.1897H131.602V10.913H140.133V19.1897H143.81Z" fill="black"/>
<path d="M154.788 19.1897V0.449955H151.111V19.1897H154.788Z" fill="black"/>
<path d="M173.867 19.1897V16.2225H165.758V10.788H172.359V7.8209H165.758V3.41708H173.867V0.449955H162.08V19.1897H173.867Z" fill="black"/>
<path d="M192.402 19.1897V16.2225H184.293V0.449955H180.615V19.1897H192.402Z" fill="black"/>
<path d="M217.685 19.1897V0.449955H213.887L207.948 14.1612L201.98 0.449955H198.061V19.1897H201.287V7.69597C201.287 7.25871 201.196 6.0094 201.196 5.9157C201.256 6.1031 201.648 7.25871 201.829 7.69597L206.682 19.1897H208.943L213.796 7.69597L214.46 5.9157C214.429 6.04063 214.339 7.25871 214.339 7.69597V19.1897H217.685Z" fill="black"/>
<path d="M236.952 13.7864C236.952 10.5382 235.144 8.69542 230.924 7.60227C228.452 6.97762 227.819 6.13433 227.819 5.04118C227.819 3.69817 228.874 2.88612 230.652 2.88612C232.25 2.88612 234.059 3.6357 235.325 4.51022L236.108 1.85543C234.903 0.887215 232.913 0.0126953 230.682 0.0126953C226.794 0.0126953 224.443 2.23023 224.443 5.29104C224.443 7.97707 225.95 10.0697 229.748 11.0379C232.702 11.7875 233.546 12.5995 233.546 14.1612C233.546 15.8165 232.159 16.7535 230.351 16.7535C227.879 16.7535 225.98 15.4105 224.774 14.2236L223.93 17.222C225.166 18.3464 227.336 19.5645 230.351 19.5645C233.757 19.5645 236.952 17.8154 236.952 13.7864Z" fill="black"/>
<path d="M259.532 19.1897L250.519 9.38255L258.327 0.449955H254.317L246.992 9.00775V0.449955H243.315V19.1897H246.992V10.3508L255.011 19.1897H259.532Z" fill="black"/>
<path d="M281.047 19.1897L273.36 0.449955H270.496L262.81 19.1897H266.367L268.206 14.5672H275.531L277.369 19.1897H281.047ZM274.536 11.9124H269.2L271.883 5.10365L274.536 11.9124Z" fill="black"/>
</svg>
