<svg width="28" height="28" viewBox="0 0 28 28" fill="none" xmlns="http://www.w3.org/2000/svg">
<path d="M13.9759 18.635C16.5504 18.635 18.6374 16.548 18.6374 13.9735C18.6374 11.399 16.5504 9.31201 13.9759 9.31201C11.4015 9.31201 9.31445 11.399 9.31445 13.9735C9.31445 16.548 11.4015 18.635 13.9759 18.635Z" fill="black"/>
<path d="M27.8634 8.26433C27.8477 7.08867 27.6277 5.9247 27.213 4.82448C26.8534 3.89646 26.3042 3.05364 25.6004 2.34989C24.8967 1.64613 24.0539 1.09692 23.1259 0.737333C22.0398 0.329637 20.8924 0.109189 19.7326 0.0853754C18.2393 0.0186274 17.7658 0 13.9752 0C10.1845 0 9.69864 1.04088e-07 8.21621 0.0853754C7.05691 0.109364 5.91007 0.32981 4.82448 0.737333C3.89631 1.09667 3.05337 1.64579 2.34958 2.34958C1.6458 3.05336 1.09667 3.89631 0.737332 4.82448C0.328821 5.90973 0.108851 7.05683 0.0869276 8.21621C0.0201796 9.71106 0 10.1845 0 13.9752C0 17.7658 -1.15654e-08 18.2501 0.0869276 19.7341C0.110212 20.8952 0.329083 22.0408 0.737332 23.129C1.09727 24.0568 1.64681 24.8994 2.35083 25.6029C3.05485 26.3064 3.89787 26.8553 4.82603 27.2146C5.90865 27.6386 7.05569 27.8749 8.21776 27.9131C9.71261 27.9798 10.1861 28 13.9767 28C17.7674 28 18.2532 28 19.7357 27.9131C20.8955 27.8902 22.0429 27.6703 23.129 27.2627C24.0567 26.9027 24.8993 26.3533 25.603 25.6496C26.3067 24.9459 26.8561 24.1033 27.2161 23.1755C27.6244 22.0889 27.8432 20.9433 27.8665 19.7807C27.9333 18.2874 27.9534 17.8139 27.9534 14.0217C27.9503 10.2311 27.9503 9.74986 27.8634 8.26433ZM13.9659 21.1436C10.0013 21.1436 6.78967 17.9319 6.78967 13.9674C6.78967 10.0029 10.0013 6.79122 13.9659 6.79122C15.8691 6.79122 17.6944 7.54728 19.0402 8.89308C20.386 10.2389 21.142 12.0642 21.142 13.9674C21.142 15.8706 20.386 17.6959 19.0402 19.0417C17.6944 20.3875 15.8691 21.1436 13.9659 21.1436ZM21.4277 8.19913C20.5009 8.19913 19.7543 7.45094 19.7543 6.52578C19.7543 6.30613 19.7976 6.08864 19.8816 5.88571C19.9657 5.68278 20.0889 5.4984 20.2442 5.34309C20.3995 5.18777 20.5839 5.06457 20.7868 4.98052C20.9897 4.89646 21.2072 4.8532 21.4269 4.8532C21.6465 4.8532 21.864 4.89646 22.0669 4.98052C22.2699 5.06457 22.4543 5.18777 22.6096 5.34309C22.7649 5.4984 22.8881 5.68278 22.9721 5.88571C23.0562 6.08864 23.0995 6.30613 23.0995 6.52578C23.0995 7.45094 22.3513 8.19913 21.4277 8.19913Z" fill="black"/>
</svg>
