<svg width="33" height="23" viewBox="0 0 33 23" fill="none" xmlns="http://www.w3.org/2000/svg">
<path d="M2.60711 3.12283L2.21296 1.44382C4.48615 1.20657 6.25975 1.12362 7.99573 1.69647C9.19229 2.09132 12.145 3.69024 13.0565 7.02102L12.4089 8.22025C11.2336 5.72586 8.92391 3.94174 7.13229 3.39937C6.01972 3.06256 4.42944 3.0439 2.60711 3.12283Z" fill="black"/>
<path d="M1.22797 9.06028L0.959961 7.92518C2.3296 7.27312 4.09101 6.75209 5.99104 6.82062C7.89107 6.88916 9.30918 8.11619 10.2072 8.81989L9.81884 9.50398C9.2918 9.1862 8.91202 8.99244 8.6175 8.81989C8.37209 9.81786 7.80206 11.6648 6.26787 11.5585C4.0003 11.4015 4.0003 9.52195 4.0003 8.22025C3.14582 8.22025 1.76187 8.73857 1.22797 9.06028Z" fill="black"/>
<path d="M23.0334 9.47688L22.8829 8.43471C23.7851 8.02229 24.6748 7.23373 26.4888 7.36119C28.9101 7.53134 30.5295 8.81291 31.2984 9.51612C31.1621 9.647 30.8175 9.96439 30.5295 10.1869C29.52 9.61707 29.1478 9.12572 28.5916 9.06028C28.5589 9.78013 28.1165 12.0591 26.03 11.6909C24.3612 11.3964 24.3038 9.34341 24.3857 8.81989C24.0379 8.87509 23.229 9.35605 23.0334 9.47688Z" fill="black"/>
<path d="M19.1998 22.8547L18.0031 22.6332C18.1062 21.4204 17.7662 20.7358 17.2023 19.8285C16.8762 19.3039 16.5025 18.7508 15.5372 18.3654C15.4227 17.3674 15.3246 15.4369 15.7827 11.8704C16.2407 8.30383 17.7756 3.95335 19.248 2.59545C20.7204 1.23754 21.8364 0.557614 25.5097 0.557614C28.2044 0.557614 31.1879 1.91746 32.6728 3.02251C32.5065 3.32732 32.3247 3.7189 32.1986 3.99044L32.1935 4.0015C30.5172 3.1821 28.093 2.38365 25.8353 2.38365L25.7935 2.38365C23.9071 2.38355 21.8519 2.38344 20.3225 4.18866C18.7818 6.00723 18.1796 7.66857 17.5357 10.5579C17.0916 12.5506 16.9615 14.5849 16.9615 17.258C18.5861 19.2526 18.9249 20.0896 19.1541 21.0044C19.273 21.4792 19.2707 22.6638 19.1998 22.8547Z" fill="black"/>
<path d="M2.60711 3.12283L2.21296 1.44382C4.48615 1.20657 6.25975 1.12362 7.99573 1.69647C9.19229 2.09132 12.145 3.69024 13.0565 7.02102L12.4089 8.22025C11.2336 5.72586 8.92391 3.94174 7.13229 3.39937C6.01972 3.06256 4.42944 3.0439 2.60711 3.12283Z" stroke="black"/>
<path d="M1.22797 9.06028L0.959961 7.92518C2.3296 7.27312 4.09101 6.75209 5.99104 6.82062C7.89107 6.88916 9.30918 8.11619 10.2072 8.81989L9.81884 9.50398C9.2918 9.1862 8.91202 8.99244 8.6175 8.81989C8.37209 9.81786 7.80206 11.6648 6.26787 11.5585C4.0003 11.4015 4.0003 9.52195 4.0003 8.22025C3.14582 8.22025 1.76187 8.73857 1.22797 9.06028Z" stroke="black"/>
<path d="M23.0334 9.47688L22.8829 8.43471C23.7851 8.02229 24.6748 7.23373 26.4888 7.36119C28.9101 7.53134 30.5295 8.81291 31.2984 9.51612C31.1621 9.647 30.8175 9.96439 30.5295 10.1869C29.52 9.61707 29.1478 9.12572 28.5916 9.06028C28.5589 9.78013 28.1165 12.0591 26.03 11.6909C24.3612 11.3964 24.3038 9.34341 24.3857 8.81989C24.0379 8.87509 23.229 9.35605 23.0334 9.47688Z" stroke="black"/>
<path d="M19.1998 22.8547L18.0031 22.6332C18.1062 21.4204 17.7662 20.7358 17.2023 19.8285C16.8762 19.3039 16.5025 18.7508 15.5372 18.3654C15.4227 17.3674 15.3246 15.4369 15.7827 11.8704C16.2407 8.30383 17.7756 3.95335 19.248 2.59545C20.7204 1.23754 21.8364 0.557614 25.5097 0.557614C28.2044 0.557614 31.1879 1.91746 32.6728 3.02251C32.5065 3.32732 32.3247 3.7189 32.1986 3.99044L32.1935 4.0015C30.5172 3.1821 28.093 2.38365 25.8353 2.38365L25.7935 2.38365C23.9071 2.38355 21.8519 2.38344 20.3225 4.18866C18.7818 6.00723 18.1796 7.66857 17.5357 10.5579C17.0916 12.5506 16.9615 14.5849 16.9615 17.258C18.5861 19.2526 18.9249 20.0896 19.1541 21.0044C19.273 21.4792 19.2707 22.6638 19.1998 22.8547Z" stroke="black"/>
</svg>
