<svg width="20" height="14" viewBox="0 0 20 14" fill="none" xmlns="http://www.w3.org/2000/svg">
<path d="M16.9697 0H2.12121C1.55863 0 1.01909 0.226922 0.621289 0.630847C0.223484 1.03477 0 1.58261 0 2.15385V11.8462C0 12.4174 0.223484 12.9652 0.621289 13.3692C1.01909 13.7731 1.55863 14 2.12121 14H16.9697C17.5323 14 18.0718 13.7731 18.4696 13.3692C18.8674 12.9652 19.0909 12.4174 19.0909 11.8462V2.15385C19.0909 1.58261 18.8674 1.03477 18.4696 0.630847C18.0718 0.226922 17.5323 0 16.9697 0ZM6.69879 7.87877L8.39788 9.38646C8.72136 9.67292 9.13076 9.81508 9.54545 9.81508C9.96015 9.81508 10.3695 9.67185 10.693 9.38646L12.3921 7.87877L12.3529 7.91862L16.2198 11.8451H2.87106L6.73803 7.91862L6.69879 7.87877ZM2.12121 11.0848V3.81231L5.94151 7.20569L2.12121 11.0848ZM13.1494 7.20569L16.9697 3.81231V11.0815L13.1494 7.20569ZM16.9697 2.15385V2.38L9.99515 8.57662C9.86741 8.68007 9.70885 8.73641 9.54545 8.73641C9.38206 8.73641 9.2235 8.68007 9.09576 8.57662L2.12121 2.38V2.15385H16.9697Z" fill="black"/>
</svg>
