<svg width="77" height="77" viewBox="0 0 77 77" fill="none" xmlns="http://www.w3.org/2000/svg">
<g filter="url(#filter0_dd)">
<circle cx="38.02" cy="36.1645" r="25.02" fill="#FF6915"/>
<path d="M51.0508 38.3271C51.0508 39.2178 50.8653 40.3496 50.4942 41.7226C50.4571 41.834 50.4014 41.9267 50.3272 42.001C50.2901 42.0381 50.253 42.0566 50.2158 42.0566H50.1602H25.3897C25.1299 42.0566 25 41.8711 25 41.5C25 40.5351 25.167 39.4775 25.501 38.3271C25.5381 38.2158 25.5752 38.1416 25.6123 38.1045C25.6865 38.0674 25.7607 38.0488 25.835 38.0488H25.8906H50.6055C50.9024 38.0488 51.0508 38.1416 51.0508 38.3271ZM25 33.5957C25.1856 31.2949 25.4639 30.1445 25.835 30.1445H50.8282C50.9766 30.1445 51.0508 30.2373 51.0508 30.4229C51.0508 31.3135 50.8653 32.4453 50.4942 33.8184C50.4571 33.9297 50.4014 34.0225 50.3272 34.0967C50.2901 34.1338 50.253 34.1523 50.2158 34.1523H50.1602H25.3897C25.1299 34.1523 25 33.9668 25 33.5957Z" fill="white"/>
</g>
<defs>
<filter id="filter0_dd" x="0" y="0.144531" width="76.04" height="76.04" filterUnits="userSpaceOnUse" color-interpolation-filters="sRGB">
<feFlood flood-opacity="0" result="BackgroundImageFix"/>
<feColorMatrix in="SourceAlpha" type="matrix" values="0 0 0 0 0 0 0 0 0 0 0 0 0 0 0 0 0 0 127 0"/>
<feOffset dy="2"/>
<feGaussianBlur stdDeviation="6.5"/>
<feColorMatrix type="matrix" values="0 0 0 0 0 0 0 0 0 0 0 0 0 0 0 0 0 0 0.1 0"/>
<feBlend mode="normal" in2="BackgroundImageFix" result="effect1_dropShadow"/>
<feColorMatrix in="SourceAlpha" type="matrix" values="0 0 0 0 0 0 0 0 0 0 0 0 0 0 0 0 0 0 127 0"/>
<feOffset/>
<feGaussianBlur stdDeviation="1.5"/>
<feColorMatrix type="matrix" values="0 0 0 0 0 0 0 0 0 0 0 0 0 0 0 0 0 0 0.1 0"/>
<feBlend mode="normal" in2="effect1_dropShadow" result="effect2_dropShadow"/>
<feBlend mode="normal" in="SourceGraphic" in2="effect2_dropShadow" result="shape"/>
</filter>
</defs>
</svg>
