<svg width="35" height="30" viewBox="0 0 35 30" fill="none" xmlns="http://www.w3.org/2000/svg">
<path d="M34.0824 25.7289L30.4157 25.7449L30.3998 22.0782L34.0664 22.0623L34.0026 7.39576L30.336 7.41172L30.32 3.74508L33.9867 3.72913L33.9707 0.0625L0.971014 0.20607L0.986966 3.8727L4.6536 3.85675L4.66955 7.52338L1.00292 7.53933L1.06673 22.2059L4.73336 22.1899L4.74931 25.8565L1.08268 25.8725L1.09863 29.5391L34.0983 29.3956L34.0824 25.7289ZM8.33618 7.50743L8.32023 3.8408L11.9869 3.82485L12.0028 7.49148L8.33618 7.50743ZM15.6694 7.47553L15.6535 3.80889L19.3201 3.79294L19.3361 7.45957L15.6694 7.47553ZM23.0027 7.44362L22.9868 3.77699L26.6534 3.76104L26.6693 7.42767L23.0027 7.44362ZM8.41594 25.8406L8.39999 22.174L12.0666 22.158L12.0826 25.8246L8.41594 25.8406ZM15.7492 25.8087L15.7333 22.1421L19.3999 22.1261L19.4158 25.7927L15.7492 25.8087ZM23.0825 25.7768L23.0665 22.1101L26.7332 22.0942L26.7491 25.7608L23.0825 25.7768Z" fill="black"/>
</svg>
