<svg width="17" height="17" viewBox="0 0 17 17" fill="none" xmlns="http://www.w3.org/2000/svg">
<path d="M16.2584 2.69204L13.9953 0.431321C13.7191 0.155106 13.3493 0 12.9583 0C12.5673 0 12.1976 0.152981 11.9213 0.431321L9.48392 2.86414C9.20766 3.14036 9.05254 3.51219 9.05254 3.90314C9.05254 4.29621 9.20554 4.66379 9.48392 4.94213L11.3879 6.84802C10.9542 7.85851 10.331 8.77663 9.55192 9.5528C8.77204 10.3368 7.86041 10.9551 6.8489 11.3928L4.9449 9.48694C4.66865 9.21072 4.29889 9.05562 3.90789 9.05562C3.71503 9.0549 3.52397 9.09269 3.3459 9.16675C3.16783 9.24081 3.00634 9.34967 2.87089 9.48694L0.431377 11.9198C0.155126 12.196 0 12.5678 0 12.9588C0 13.3518 0.153001 13.7194 0.431377 13.9978L2.69239 16.2585C3.16414 16.7302 3.81439 17 4.48164 17C4.61977 17 4.75365 16.9894 4.88965 16.966C7.70316 16.5028 10.4954 15.0049 12.7501 12.7527C15.0026 10.4962 16.4986 7.70429 16.9661 4.88901C17.0999 4.09011 16.8322 3.26784 16.2584 2.69204ZM15.4594 4.63617C15.0451 7.14123 13.6978 9.63992 11.6684 11.669C9.63904 13.6982 7.14216 15.0452 4.63677 15.4596C4.32227 15.5127 3.99927 15.4064 3.76977 15.1791L1.54913 12.9588L3.90364 10.6024L6.4494 13.1521L6.46853 13.1712L6.92753 13.0013C8.31926 12.4896 9.58308 11.6815 10.6314 10.633C11.6797 9.58442 12.4875 8.32049 12.9987 6.92876L13.1687 6.46982L10.6017 3.90526L12.9562 1.54893L15.1768 3.76928C15.4063 3.99875 15.5126 4.32171 15.4594 4.63617Z" fill="black"/>
</svg>
