<svg width="34" height="29" viewBox="0 0 34 29" fill="none" xmlns="http://www.w3.org/2000/svg">
<path d="M33.4999 1.96399C33.4999 1.51121 33.3201 1.07698 32.9999 0.756812C32.6798 0.436649 32.2455 0.256783 31.7927 0.256783C31.7057 0.256783 31.6221 0.269763 31.5381 0.282361V0.246094H2.21746V0.256783C1.76468 0.256783 1.33045 0.436649 1.01028 0.756812C0.69012 1.07698 0.510254 1.51121 0.510254 1.96399V26.5872H0.529342C0.625544 27.4388 1.33981 28.1035 2.21708 28.1035V28.1142H31.5377V28.0779C31.6213 28.0905 31.7049 28.1035 31.7924 28.1035C32.67 28.1035 33.3843 27.4392 33.4805 26.5872H33.5103V1.96399H33.4999ZM29.7095 24.313H25.5633C25.5493 24.2544 25.528 24.1977 25.4999 24.1443L25.5068 24.1405L16.8337 9.11845L16.8303 9.12036C16.7346 8.92165 16.5849 8.75393 16.3982 8.63645C16.2116 8.51896 15.9956 8.45645 15.7751 8.45611C15.5485 8.4564 15.3268 8.52216 15.1367 8.64549C14.9466 8.76882 14.7961 8.94447 14.7035 9.15128L8.93176 19.1479L7.5185 16.7005L7.51659 16.7016C7.4662 16.5968 7.38729 16.5084 7.28891 16.4464C7.19053 16.3844 7.07666 16.3514 6.96038 16.3512C6.7088 16.3512 6.49311 16.502 6.39576 16.7169L4.31138 20.3271V4.05791H29.7095V24.313Z" fill="black"/>
<path d="M23.9285 13.6773C26.0579 13.6773 27.7842 11.951 27.7842 9.82154C27.7842 7.69209 26.0579 5.96582 23.9285 5.96582C21.799 5.96582 20.0728 7.69209 20.0728 9.82154C20.0728 11.951 21.799 13.6773 23.9285 13.6773Z" fill="black"/>
</svg>
