<svg width="41" height="31" viewBox="0 0 41 31" fill="none" xmlns="http://www.w3.org/2000/svg">
<path d="M24.616 30.84C34.136 28.152 40.184 21.768 40.184 13.144C40.184 6.088 36.152 0.823998 29.768 0.823998C26.072 0.823998 22.936 2.504 22.936 6.648C22.936 11.464 25.512 12.584 28.648 12.472C32.008 12.36 34.248 13.144 34.248 17.176C34.248 21.88 31.112 25.576 23.496 28.152L24.616 30.84ZM1.768 30.84C11.288 28.152 17.336 21.768 17.336 13.144C17.336 6.088 13.304 0.823998 6.92 0.823998C3.224 0.823998 0.0880008 2.504 0.0880008 6.648C0.0880008 11.464 2.664 12.584 5.8 12.472C9.16 12.36 11.4 13.144 11.4 17.176C11.4 21.88 8.264 25.576 0.648 28.152L1.768 30.84Z" fill="black"/>
</svg>
