<svg width="24" height="18" viewBox="0 0 24 18" fill="none" xmlns="http://www.w3.org/2000/svg">
<path d="M14.352 17.48C19.792 15.944 23.248 12.296 23.248 7.368C23.248 3.336 20.944 0.327999 17.296 0.327999C15.184 0.327999 13.392 1.288 13.392 3.656C13.392 6.408 14.864 7.048 16.656 6.984C18.576 6.92 19.856 7.368 19.856 9.672C19.856 12.36 18.064 14.472 13.712 15.944L14.352 17.48ZM1.296 17.48C6.736 15.944 10.192 12.296 10.192 7.368C10.192 3.336 7.888 0.327999 4.24 0.327999C2.128 0.327999 0.336 1.288 0.336 3.656C0.336 6.408 1.808 7.048 3.6 6.984C5.52 6.92 6.8 7.368 6.8 9.672C6.8 12.36 5.008 14.472 0.656 15.944L1.296 17.48Z" fill="white"/>
</svg>
