<svg width="15" height="15" viewBox="0 0 15 15" fill="none" xmlns="http://www.w3.org/2000/svg">
<path d="M14.8 5.75C14 2.45 11.05 0 7.5 0H7.25V5.75H14.8Z" fill="#428BC1"/>
<path d="M3.7502 1C2.0002 2.025 0.700195 3.725 0.200195 5.75H3.7502V1Z" fill="#428BC1"/>
<path d="M0.200195 9.25C0.700195 11.275 2.0002 12.975 3.7502 14V9.25H0.200195Z" fill="#428BC1"/>
<path d="M7.25 15H7.5C11.05 15 14 12.55 14.8 9.25H7.25V15Z" fill="#428BC1"/>
<path d="M14.8 5.75H7.25V0C5.975 0.05 4.775 0.4 3.75 1V5.75H0.2C0.075 6.3 0 6.9 0 7.5C0 8.1 0.075 8.7 0.2 9.25H3.75V14C4.775 14.6 5.975 14.95 7.25 15V9.25H14.8C14.925 8.7 15 8.1 15 7.5C15 6.9 14.925 6.3 14.8 5.75Z" fill="#FFE62E"/>
</svg>
